<?xml version="1.0" encoding="iso-8859-1"?>
<!-- Uploaded to: SVG Repo, www.svgrepo.com, Generator: SVG Repo Mixer Tools -->
<svg fill="#000000" height="800px" width="800px" version="1.1" id="Layer_1" xmlns="http://www.w3.org/2000/svg" xmlns:xlink="http://www.w3.org/1999/xlink" 
	 viewBox="0 0 512 512" xml:space="preserve">
<g>
	<g>
		<path d="M437.019,74.981C388.667,26.628,324.379,0,256,0S123.333,26.628,74.982,74.981C26.628,123.333,0,187.621,0,256
			s26.628,132.667,74.982,181.019C123.333,485.372,187.621,512,256,512s132.667-26.628,181.019-74.981S512,324.379,512,256
			S485.372,123.333,437.019,74.981z M256,495.832C123.756,495.832,16.168,388.244,16.168,256S123.756,16.168,256,16.168
			S495.832,123.756,495.832,256S388.244,495.832,256,495.832z"/>
	</g>
</g>
<g>
	<g>
		<path d="M349.613,237.646c-0.942-0.363-1.956-0.509-2.966-0.509H223.663c-4.465,0-8.084,3.62-8.084,8.084v53.895
			c0,4.465,3.62,8.084,8.084,8.084h51.182c-16.49,23.528-43.275,37.698-72.653,37.726h-0.083c-47.216,0-87.072-38.317-88.864-85.45
			c-0.693-18.237,4.052-35.738,13.529-50.748c2.003-3.173,1.558-7.305-1.096-9.958c-0.039-0.039-0.077-0.077-0.115-0.115
			c-3.616-3.616-9.684-2.99-12.421,1.331c-11.253,17.77-16.873,38.507-16.052,60.105c1.033,27.187,12.492,52.619,32.267,71.61
			c19.739,18.957,45.571,29.394,72.749,29.394h0.101c40.138-0.039,76.178-22.408,94.057-58.381c1.622-3.261,0.898-7.31-2.062-9.816
			c-1.491-1.262-3.432-1.866-5.385-1.866l-57.069,0v-37.726h106.934l-0.002,7.677c-0.026,74.458-59.935,136.278-133.547,137.808
			c-1.007,0.022-2.015,0.031-3.028,0.031c-77.738,0-141.802-63.222-142.809-140.931c-0.495-38.215,14.087-74.386,41.06-101.848
			c26.954-27.445,62.825-42.666,101.006-42.86c0.247-0.001,0.488-0.002,0.735-0.002c32.628,0,63.994,11.059,89.28,31.337
			l-26.9,26.901c-17.995-13.275-39.869-20.511-62.371-20.511c-21.674,0-42.25,6.472-59.628,18.511
			c-4.102,2.842-4.606,8.723-1.077,12.252l0.114,0.114c2.748,2.748,7.057,3.109,10.253,0.9
			c14.68-10.144,32.042-15.608,50.338-15.608c21.164,0,41.669,7.565,57.74,21.3c3.209,2.742,7.984,2.554,10.97-0.429L309,149.761
			c2.299-2.3,3.065-5.838,1.667-9.032c-0.466-1.064-1.201-1.993-2.063-2.771c-29.269-26.426-67.057-40.947-106.507-40.947
			c-0.273,0-0.547,0.001-0.818,0.002c-42.523,0.217-82.462,17.157-112.46,47.699c-30.016,30.562-46.242,70.83-45.691,113.387
			c0.544,42.027,17.323,81.451,47.245,111.01c29.949,29.587,69.629,45.881,111.731,45.881c1.124,0,2.246-0.012,3.364-0.034
			c40.182-0.835,77.802-17.334,105.928-46.457c28.004-28.995,43.435-67.177,43.45-107.51l0.005-15.764
			C354.854,241.967,352.889,238.911,349.613,237.646z"/>
	</g>
</g>
<g>
	<g>
		<path d="M450.021,150.905h-24.253v-24.253c0-4.465-3.619-8.084-8.084-8.084h-43.116c-4.466,0-8.084,3.62-8.084,8.084v24.253
			h-24.253c-4.466,0-8.084,3.62-8.084,8.084v43.116c0,4.465,3.619,8.084,8.084,8.084h24.253v24.253c0,4.465,3.619,8.084,8.084,8.084
			h43.116c4.466,0,8.084-3.62,8.084-8.084v-24.253h24.253c4.466,0,8.084-3.62,8.084-8.084v-43.116
			C458.105,154.525,454.487,150.905,450.021,150.905z M441.937,194.021h-24.253c-4.466,0-8.084,3.62-8.084,8.084v24.253h-26.947
			v-24.253c0-4.465-3.619-8.084-8.084-8.084h-24.253v-26.947h24.253c4.466,0,8.084-3.62,8.084-8.084v-24.253H409.6v24.253
			c0,4.465,3.619,8.084,8.084,8.084h24.253V194.021z"/>
	</g>
</g>
</svg>