<?xml version="1.0" encoding="iso-8859-1"?>
<!-- Uploaded to: SVG Repo, www.svgrepo.com, Generator: SVG Repo Mixer Tools -->
<svg fill="#000000" height="800px" width="800px" version="1.1" id="Layer_1" xmlns="http://www.w3.org/2000/svg" xmlns:xlink="http://www.w3.org/1999/xlink" 
	 viewBox="0 0 512 512" xml:space="preserve">
<g>
	<g>
		<path d="M437.019,74.981C388.667,26.628,324.379,0,256,0S123.333,26.628,74.981,74.981C26.628,123.333,0,187.621,0,256
			s26.628,132.667,74.981,181.019C123.333,485.372,187.621,512,256,512s132.667-26.628,181.019-74.981S512,324.379,512,256
			S485.372,123.333,437.019,74.981z M256,495.832C123.756,495.832,16.168,388.244,16.168,256S123.756,16.168,256,16.168
			S495.832,123.756,495.832,256S388.244,495.832,256,495.832z"/>
	</g>
</g>
<g>
	<g>
		<path d="M341.09,96.802c-5.379-2.888-11.897,1.032-11.897,7.137c0,2.977,1.641,5.707,4.264,7.115
			c51.687,27.732,86.921,82.297,86.921,144.946c0,90.639-73.74,164.379-164.379,164.379c-40.05,0-78.635-14.575-108.655-41.044
			c-1.497-1.319-3.409-2.072-5.405-2.072H95.478l15.266-38.167c0.878-2.197,0.751-4.668-0.349-6.762
			C98.112,308.958,91.621,282.563,91.621,256c0-90.639,73.74-164.379,164.379-164.379c13.742,0,27.093,1.701,39.86,4.896
			c5.134,1.285,10.124-2.528,10.124-7.82v-0.002c0-3.691-2.492-6.937-6.072-7.835C285.849,77.33,271.14,75.453,256,75.453
			c-99.554,0-180.547,80.993-180.547,180.547c0,27.911,6.53,55.66,18.914,80.505l-18.254,45.636
			c-0.69,1.725-0.877,3.642-0.355,5.425c1.049,3.581,4.264,5.866,7.779,5.866h55.387c32.639,27.826,74.09,43.116,117.077,43.116
			c99.554,0,180.547-80.993,180.547-180.547C436.547,187.195,397.855,127.264,341.09,96.802z"/>
	</g>
</g>
<g>
	<g>
		<path d="M346.277,184.325c-2.929-1.708-6.644-1.272-9.293,0.846l-51.483,41.186h-94.175c-3.234,0-6.157,1.927-7.43,4.899
			L151.56,306.71c-1.381,3.223-0.527,6.969,2.114,9.275c1.51,1.318,3.407,1.994,5.318,1.994c1.431,0,2.87-0.379,4.157-1.152
			l51.974-31.185h22.306c4.465,0,8.084-3.62,8.084-8.084c0-4.465-3.62-8.084-8.084-8.084h-24.545c-1.465,0-2.903,0.399-4.16,1.152
			l-32.456,19.473l20.388-47.573h91.68c1.836,0,3.616-0.625,5.05-1.771l25.154-20.123l-24.421,48.842h-17.312
			c-4.465,0-8.084,3.62-8.084,8.084c0,4.465,3.62,8.084,8.084,8.084h22.308c3.062,0,5.862-1.73,7.231-4.469l43.116-86.232
			C351.345,191.176,350.041,186.521,346.277,184.325z"/>
	</g>
</g>
</svg>